<svg id="visual" viewBox="0 0 100 100" width="100" height="100" xmlns="http://www.w3.org/2000/svg" xmlns:xlink="http://www.w3.org/1999/xlink" version="1.1"><rect x="0" y="0" width="100" height="100" fill="#001220"></rect><defs><linearGradient id="grad1_0" x1="0%" y1="0%" x2="100%" y2="100%"><stop offset="30%" stop-color="#001220" stop-opacity="1"></stop><stop offset="70%" stop-color="#001220" stop-opacity="1"></stop></linearGradient></defs><defs><linearGradient id="grad2_0" x1="0%" y1="0%" x2="100%" y2="100%"><stop offset="30%" stop-color="#001220" stop-opacity="1"></stop><stop offset="70%" stop-color="#001220" stop-opacity="1"></stop></linearGradient></defs><g transform="translate(100, 0)"><path d="M0 46C-6.5 45.9 -13.1 45.8 -17.6 42.5C-22.1 39.1 -24.7 32.5 -27.6 27.6C-30.5 22.7 -33.8 19.6 -37 15.3C-40.1 11 -43 5.5 -46 0L0 0Z" fill="#235fbb"></path></g><g transform="translate(0, 100)"><path d="M0 -46C6 -45.5 12.1 -45.1 17.6 -42.5C23.1 -39.9 28.2 -35.1 29.7 -29.7C31.2 -24.3 29.3 -18.1 31.4 -13C33.5 -7.9 39.8 -4 46 0L0 0Z" fill="#235fbb"></path></g></svg>