<svg id="visual" viewBox="0 0 960 540" width="960" height="540" xmlns="http://www.w3.org/2000/svg" xmlns:xlink="http://www.w3.org/1999/xlink" version="1.1"><g stroke-width="1" stroke-linejoin="bevel"><path d="M460.7 292L455.7 335L556.3 288Z" fill="#0075be" stroke="#0075be"></path><path d="M455.7 335L534.3 396L556.3 288Z" fill="#235fbb" stroke="#235fbb"></path><path d="M556.3 288L550.3 214L460.7 292Z" fill="#00a685" stroke="#00a685"></path><path d="M550.3 214L462.7 209L460.7 292Z" fill="#00a685" stroke="#00a685"></path><path d="M460.7 292L337 365L455.7 335Z" fill="#235fbb" stroke="#235fbb"></path><path d="M659 386L625 274L556.3 288Z" fill="#00a298" stroke="#00a298"></path><path d="M556.3 288L625 274L550.3 214Z" fill="#00a298" stroke="#00a298"></path><path d="M337 365L445.7 426L455.7 335Z" fill="#235fbb" stroke="#235fbb"></path><path d="M455.7 335L445.7 426L534.3 396Z" fill="#0075be" stroke="#0075be"></path><path d="M445.7 426L569.3 456L534.3 396Z" fill="#0096b1" stroke="#0096b1"></path><path d="M534.3 396L659 386L556.3 288Z" fill="#0096b1" stroke="#0096b1"></path><path d="M569.3 456L659 386L534.3 396Z" fill="#38a96f" stroke="#38a96f"></path><path d="M296 297L337 365L460.7 292Z" fill="#009da7" stroke="#009da7"></path><path d="M569.3 456L645 471L659 386Z" fill="#0075be" stroke="#0075be"></path><path d="M550.3 214L464.7 120L462.7 209Z" fill="#008fb5" stroke="#008fb5"></path><path d="M341 167L296 297L460.7 292Z" fill="#006bbe" stroke="#006bbe"></path><path d="M500.3 95L464.7 120L550.3 214Z" fill="#007ebc" stroke="#007ebc"></path><path d="M748.7 475L714.7 345L659 386Z" fill="#235fbb" stroke="#235fbb"></path><path d="M659 386L714.7 345L625 274Z" fill="#009da7" stroke="#009da7"></path><path d="M625 274L673 174L550.3 214Z" fill="#0096b1" stroke="#0096b1"></path><path d="M341 167L460.7 292L462.7 209Z" fill="#38a96f" stroke="#38a96f"></path><path d="M745.7 275L673 174L625 274Z" fill="#38a96f" stroke="#38a96f"></path><path d="M445.7 426L513.3 540L569.3 456Z" fill="#0087b9" stroke="#0087b9"></path><path d="M569.3 456L667 540L645 471Z" fill="#38a96f" stroke="#38a96f"></path><path d="M406.7 540L513.3 540L445.7 426Z" fill="#235fbb" stroke="#235fbb"></path><path d="M602 88L500.3 95L550.3 214Z" fill="#38a96f" stroke="#38a96f"></path><path d="M289 116L341 167L356 0Z" fill="#0096b1" stroke="#0096b1"></path><path d="M464.7 120L341 167L462.7 209Z" fill="#009da7" stroke="#009da7"></path><path d="M714.7 345L745.7 275L625 274Z" fill="#00a685" stroke="#00a685"></path><path d="M294 477L445.7 426L337 365Z" fill="#0096b1" stroke="#0096b1"></path><path d="M294 477L406.7 540L445.7 426Z" fill="#0075be" stroke="#0075be"></path><path d="M673 174L602 88L550.3 214Z" fill="#006bbe" stroke="#006bbe"></path><path d="M218.3 430L294 477L337 365Z" fill="#0075be" stroke="#0075be"></path><path d="M513.3 540L667 540L569.3 456Z" fill="#00a298" stroke="#00a298"></path><path d="M645 471L748.7 475L659 386Z" fill="#0087b9" stroke="#0087b9"></path><path d="M714.7 345L819.3 263L745.7 275Z" fill="#009da7" stroke="#009da7"></path><path d="M667 540L748.7 475L645 471Z" fill="#235fbb" stroke="#235fbb"></path><path d="M745.7 275L755.7 154L673 174Z" fill="#00a298" stroke="#00a298"></path><path d="M673 174L740.7 118L602 88Z" fill="#0075be" stroke="#0075be"></path><path d="M819.3 263L755.7 154L745.7 275Z" fill="#007ebc" stroke="#007ebc"></path><path d="M356 0L341 167L464.7 120Z" fill="#009da7" stroke="#009da7"></path><path d="M341 167L196.3 253L296 297Z" fill="#006bbe" stroke="#006bbe"></path><path d="M185.3 351L218.3 430L337 365Z" fill="#235fbb" stroke="#235fbb"></path><path d="M755.7 154L740.7 118L673 174Z" fill="#00a298" stroke="#00a298"></path><path d="M185.3 351L337 365L296 297Z" fill="#0096b1" stroke="#0096b1"></path><path d="M294 477L286 540L406.7 540Z" fill="#0075be" stroke="#0075be"></path><path d="M182.3 540L286 540L294 477Z" fill="#0087b9" stroke="#0087b9"></path><path d="M884.3 372L819.3 263L714.7 345Z" fill="#006bbe" stroke="#006bbe"></path><path d="M755.7 154L874.3 117L740.7 118Z" fill="#0075be" stroke="#0075be"></path><path d="M188.3 190L196.3 253L341 167Z" fill="#0075be" stroke="#0075be"></path><path d="M602 88L539.3 0L500.3 95Z" fill="#0096b1" stroke="#0096b1"></path><path d="M500.3 95L414.7 0L464.7 120Z" fill="#00a298" stroke="#00a298"></path><path d="M640 0L539.3 0L602 88Z" fill="#009da7" stroke="#009da7"></path><path d="M196.3 253L185.3 351L296 297Z" fill="#0096b1" stroke="#0096b1"></path><path d="M539.3 0L414.7 0L500.3 95Z" fill="#0087b9" stroke="#0087b9"></path><path d="M667 540L770.7 540L748.7 475Z" fill="#38a96f" stroke="#38a96f"></path><path d="M748.7 475L849.3 429L714.7 345Z" fill="#006bbe" stroke="#006bbe"></path><path d="M711.7 0L640 0L602 88Z" fill="#0096b1" stroke="#0096b1"></path><path d="M289 116L188.3 190L341 167Z" fill="#00a298" stroke="#00a298"></path><path d="M196.3 253L129.7 306L185.3 351Z" fill="#008fb5" stroke="#008fb5"></path><path d="M177.3 108L188.3 190L289 116Z" fill="#0075be" stroke="#0075be"></path><path d="M819.3 263L847.3 212L755.7 154Z" fill="#008fb5" stroke="#008fb5"></path><path d="M740.7 118L711.7 0L602 88Z" fill="#008fb5" stroke="#008fb5"></path><path d="M960 262L847.3 212L819.3 263Z" fill="#0075be" stroke="#0075be"></path><path d="M414.7 0L356 0L464.7 120Z" fill="#0096b1" stroke="#0096b1"></path><path d="M833.3 540L849.3 429L748.7 475Z" fill="#00a298" stroke="#00a298"></path><path d="M854.3 0L711.7 0L740.7 118Z" fill="#008fb5" stroke="#008fb5"></path><path d="M849.3 429L884.3 372L714.7 345Z" fill="#00a685" stroke="#00a685"></path><path d="M188.3 190L129.7 306L196.3 253Z" fill="#0075be" stroke="#0075be"></path><path d="M75.7 460L182.3 540L218.3 430Z" fill="#009da7" stroke="#009da7"></path><path d="M218.3 430L182.3 540L294 477Z" fill="#0087b9" stroke="#0087b9"></path><path d="M770.7 540L833.3 540L748.7 475Z" fill="#00a298" stroke="#00a298"></path><path d="M960 410L960 345L884.3 372Z" fill="#00a298" stroke="#00a298"></path><path d="M221.3 0L177.3 108L289 116Z" fill="#007ebc" stroke="#007ebc"></path><path d="M0 280L84.7 327L129.7 306Z" fill="#0087b9" stroke="#0087b9"></path><path d="M75.7 460L218.3 430L185.3 351Z" fill="#235fbb" stroke="#235fbb"></path><path d="M960 187L874.3 117L847.3 212Z" fill="#0087b9" stroke="#0087b9"></path><path d="M847.3 212L874.3 117L755.7 154Z" fill="#235fbb" stroke="#235fbb"></path><path d="M129.7 306L84.7 327L185.3 351Z" fill="#235fbb" stroke="#235fbb"></path><path d="M98.7 149L129.7 306L188.3 190Z" fill="#00a298" stroke="#00a298"></path><path d="M356 0L221.3 0L289 116Z" fill="#235fbb" stroke="#235fbb"></path><path d="M177.3 108L98.7 149L188.3 190Z" fill="#007ebc" stroke="#007ebc"></path><path d="M221.3 0L134.7 87L177.3 108Z" fill="#0087b9" stroke="#0087b9"></path><path d="M134.7 87L98.7 149L177.3 108Z" fill="#007ebc" stroke="#007ebc"></path><path d="M960 410L884.3 372L849.3 429Z" fill="#00a685" stroke="#00a685"></path><path d="M884.3 372L960 262L819.3 263Z" fill="#00a298" stroke="#00a298"></path><path d="M960 345L960 262L884.3 372Z" fill="#009da7" stroke="#009da7"></path><path d="M84.7 327L75.7 460L185.3 351Z" fill="#009da7" stroke="#009da7"></path><path d="M960 540L960 410L849.3 429Z" fill="#0075be" stroke="#0075be"></path><path d="M960 262L960 187L847.3 212Z" fill="#006bbe" stroke="#006bbe"></path><path d="M960 0L854.3 0L874.3 117Z" fill="#0087b9" stroke="#0087b9"></path><path d="M874.3 117L854.3 0L740.7 118Z" fill="#00a685" stroke="#00a685"></path><path d="M221.3 0L139.7 0L134.7 87Z" fill="#006bbe" stroke="#006bbe"></path><path d="M134.7 87L0 120L98.7 149Z" fill="#0087b9" stroke="#0087b9"></path><path d="M0 370L75.7 460L84.7 327Z" fill="#009da7" stroke="#009da7"></path><path d="M0 540L67.7 540L75.7 460Z" fill="#00a685" stroke="#00a685"></path><path d="M75.7 460L67.7 540L182.3 540Z" fill="#235fbb" stroke="#235fbb"></path><path d="M960 187L960 113L874.3 117Z" fill="#007ebc" stroke="#007ebc"></path><path d="M833.3 540L960 540L849.3 429Z" fill="#00a685" stroke="#00a685"></path><path d="M0 205L129.7 306L98.7 149Z" fill="#009da7" stroke="#009da7"></path><path d="M0 205L0 280L129.7 306Z" fill="#0087b9" stroke="#0087b9"></path><path d="M0 280L0 370L84.7 327Z" fill="#38a96f" stroke="#38a96f"></path><path d="M0 370L0 426L75.7 460Z" fill="#007ebc" stroke="#007ebc"></path><path d="M0 120L0 205L98.7 149Z" fill="#009da7" stroke="#009da7"></path><path d="M0 0L0 120L134.7 87Z" fill="#0096b1" stroke="#0096b1"></path><path d="M960 113L960 0L874.3 117Z" fill="#008fb5" stroke="#008fb5"></path><path d="M0 426L0 540L75.7 460Z" fill="#009da7" stroke="#009da7"></path><path d="M139.7 0L0 0L134.7 87Z" fill="#0087b9" stroke="#0087b9"></path></g></svg>