<svg id="visual" viewBox="0 0 960 540" width="960" height="540" xmlns="http://www.w3.org/2000/svg" xmlns:xlink="http://www.w3.org/1999/xlink" version="1.1"><rect x="0" y="0" width="960" height="540" fill="#001220"></rect><path d="M0 395L22.8 388.8C45.7 382.7 91.3 370.3 137 357C182.7 343.7 228.3 329.3 274 335.3C319.7 341.3 365.3 367.7 411.2 369.2C457 370.7 503 347.3 548.8 344C594.7 340.7 640.3 357.3 686 358.5C731.7 359.7 777.3 345.3 823 347.8C868.7 350.3 914.3 369.7 937.2 379.3L960 389L960 541L937.2 541C914.3 541 868.7 541 823 541C777.3 541 731.7 541 686 541C640.3 541 594.7 541 548.8 541C503 541 457 541 411.2 541C365.3 541 319.7 541 274 541C228.3 541 182.7 541 137 541C91.3 541 45.7 541 22.8 541L0 541Z" fill="#fa7268"></path><path d="M0 395L22.8 397.7C45.7 400.3 91.3 405.7 137 403.2C182.7 400.7 228.3 390.3 274 384.7C319.7 379 365.3 378 411.2 382C457 386 503 395 548.8 400.8C594.7 406.7 640.3 409.3 686 407.3C731.7 405.3 777.3 398.7 823 391.5C868.7 384.3 914.3 376.7 937.2 372.8L960 369L960 541L937.2 541C914.3 541 868.7 541 823 541C777.3 541 731.7 541 686 541C640.3 541 594.7 541 548.8 541C503 541 457 541 411.2 541C365.3 541 319.7 541 274 541C228.3 541 182.7 541 137 541C91.3 541 45.7 541 22.8 541L0 541Z" fill="#ef5f67"></path><path d="M0 449L22.8 443.5C45.7 438 91.3 427 137 426.5C182.7 426 228.3 436 274 437.8C319.7 439.7 365.3 433.3 411.2 425.2C457 417 503 407 548.8 403.3C594.7 399.7 640.3 402.3 686 402.8C731.7 403.3 777.3 401.7 823 403.8C868.7 406 914.3 412 937.2 415L960 418L960 541L937.2 541C914.3 541 868.7 541 823 541C777.3 541 731.7 541 686 541C640.3 541 594.7 541 548.8 541C503 541 457 541 411.2 541C365.3 541 319.7 541 274 541C228.3 541 182.7 541 137 541C91.3 541 45.7 541 22.8 541L0 541Z" fill="#e34c67"></path><path d="M0 443L22.8 442.8C45.7 442.7 91.3 442.3 137 445.5C182.7 448.7 228.3 455.3 274 454.7C319.7 454 365.3 446 411.2 441.7C457 437.3 503 436.7 548.8 437.7C594.7 438.7 640.3 441.3 686 442C731.7 442.7 777.3 441.3 823 443.8C868.7 446.3 914.3 452.7 937.2 455.8L960 459L960 541L937.2 541C914.3 541 868.7 541 823 541C777.3 541 731.7 541 686 541C640.3 541 594.7 541 548.8 541C503 541 457 541 411.2 541C365.3 541 319.7 541 274 541C228.3 541 182.7 541 137 541C91.3 541 45.7 541 22.8 541L0 541Z" fill="#d53867"></path><path d="M0 493L22.8 490.8C45.7 488.7 91.3 484.3 137 482.7C182.7 481 228.3 482 274 488C319.7 494 365.3 505 411.2 504C457 503 503 490 548.8 488.8C594.7 487.7 640.3 498.3 686 500.7C731.7 503 777.3 497 823 496.3C868.7 495.7 914.3 500.3 937.2 502.7L960 505L960 541L937.2 541C914.3 541 868.7 541 823 541C777.3 541 731.7 541 686 541C640.3 541 594.7 541 548.8 541C503 541 457 541 411.2 541C365.3 541 319.7 541 274 541C228.3 541 182.7 541 137 541C91.3 541 45.7 541 22.8 541L0 541Z" fill="#c62368"></path></svg>